<?xml version="1.0" encoding="UTF-8"?>
<svg id="_레이어_1" data-name="레이어 1" xmlns="http://www.w3.org/2000/svg" viewBox="0 0 841.05 697.18">
  <path d="M210.58,462.41l36.9.31.16-163.74,241.22-.03-.06,232.62-347.53.04-.22-186.99-35.06,30.23-106.01-.66,271.87-241.91L420.44,0l209.61,186.93.19-94.65,69.24.09.14,155.95,141.43,125.95-106.42.8L420.43,95.62l-210,186.35.16,180.44ZM315.99,367.3v95.4h104.28v-95.4h-104.28Z" fill="#194467"/>
  <polygon points="247.66 559.56 317.16 558.83 317.62 627.89 630.07 627.98 630.34 321.61 699.63 383.28 699.66 697.18 248.03 697.17 247.66 559.56" fill="#9a6f42"/>
  <rect x="413.5" y="396.68" width="291.46" height="68.97" transform="translate(128 990.34) rotate(-89.99)" fill="#194467"/>
</svg>