<?xml version="1.0" encoding="UTF-8"?>
<svg id="logo" xmlns="http://www.w3.org/2000/svg" viewBox="0 0 1380.11 465.83">
  <g id="icon">
    <path d="M140.7,308.96l24.66.21.11-109.4,161.17-.02-.04,155.43-232.2.02-.14-124.94-23.42,20.2-70.83-.44L181.65,88.38,280.92,0l140.05,124.9.12-63.24,46.26.06.1,104.2,94.5,84.16-71.1.53L280.91,63.89l-140.31,124.51.1,120.56ZM211.13,245.41v63.74h69.68v-63.74h-69.68Z" fill="#194467"/>
    <polygon points="165.47 373.87 211.91 373.39 212.22 419.53 420.98 419.59 421.16 214.89 467.46 256.09 467.48 465.83 165.73 465.82 165.47 373.87" fill="#9a6f42"/>
    <rect x="276.28" y="265.04" width="194.74" height="46.08" transform="translate(85.53 661.7) rotate(-89.99)" fill="#194467"/>
  </g>
  <g>
    <path d="M798.62,250.07l-123.82-.02.02-123.82,123.82.02-.02,123.82ZM877.87,320.53v33.89s-176.13-.02-176.13-.02v-84.86s43.24,0,43.24,0v50.97s132.89.02,132.89.02ZM756.47,159.87h-39.23s0,56.57,0,56.57h39.23s0-56.57,0-56.57ZM872,285.04h-43.23s.02-177.46.02-177.46h43.23s-.02,177.46-.02,177.46Z" fill="#392b20"/>
    <path d="M1042.02,126.02c0,69.12-40.31,119.01-114.23,141.69l-17.88-34.16c49.37-14.94,78.73-41.35,85.4-73.64h-71.78s0-33.9,0-33.9h118.48ZM1125.78,320.56v33.89s-173.73-.02-173.73-.02v-82.73s43.24,0,43.24,0v48.83s130.49.02,130.49.02ZM1076.17,178.06v-70.72s43.24,0,43.24,0l-.02,182.26h-43.23s0-77.13,0-77.13h-37.09s0-34.43,0-34.43h37.09Z" fill="#392b20"/>
    <path d="M1288.04,263.48v17.61s65.11,0,65.11,0v77.39s-43.24,0-43.24,0v-44.03s-131.55-.02-131.55-.02v-33.36s66.45,0,66.45,0v-17.61s-91.53-.01-91.53-.01v-33.62s226.83.03,226.83.03v33.62s-92.07-.01-92.07-.01ZM1160.76,191.41c55.24-2.93,74.99-16.54,79.79-29.08h-66.45s0-32.83,0-32.83h70.72s0-20.81,0-20.81h43.23s0,20.82,0,20.82h70.98s0,32.83,0,32.83h-66.71c4.8,12.53,24.55,26.15,79.79,29.09l-12.55,32.02c-47.5-2.67-77.39-14.69-93.13-32.03-15.75,17.34-45.64,29.35-93.14,32.01l-12.54-32.02Z" fill="#392b20"/>
  </g>
</svg>